# xmcd
#
# Track frame offsets: 
#        150
#        10135
#        21018
#        42268
#        55148
#        61663
#        75533
#        88215
#        99618
#        111910
#        123325
#        138798
#        151133
#        165018
#        185513
#        197133
#        207320
#
# Disc length: 2913 seconds
#
# Revision: 3
# Processed by: cddbd v1.5.2PL0 Copyright (c) Steve Scherf et al.
# Submitted via: ExactAudioCopy v1.3
#
DISCID=d10b5f11
DTITLE=Various Artist - Legends Of Guitar Country Vol. 1
DYEAR=1990
DGENRE=Country
TTITLE0=Larry Collins And Joe Maphis - Hurricane
TTITLE1=Jimmy Bryant With Speedy West - The Night Rider
TTITLE2=Marty Robbins - El Paso
TTITLE3=Spade Cooley And His Orchestra - Oklahoma Stomp
TTITLE4=Merle Travis - Cannon Ball Stomp
TTITLE5=Roy Lanham - Lost Weekend
TTITLE6=Milton Brown And His Musical Brownies - Cheesy Breeze
TTITLE7=Chet Atkins - Galloping On The Guitar
TTITLE8=Bob Wills And His Texas Playboys - Twin Guitar Special
TTITLE9=Texas Troubadours Featuring Leon Rhodes - Honey Fingers
TTITLE10=Arthur Smith And His Crackerjacks - Guitar Boogie
TTITLE11=Hank Sugarfoot Garland - Sugarfoot Rag
TTITLE12=Carl Perkins - Tennessee
TTITLE13=Merle Haggard - I Think I'll Just Stay Here And Drink
TTITLE14=Webb Pierce - Slowly
TTITLE15=Doc Watson - Windy And Warm
TTITLE16=Byrds - Nashville West
EXTD=Unless otherwise indicated, the lead guitar is the credited artis
EXTD=t(s).
EXTT0=
EXTT1=
EXTT2=Grady Martin
EXTT3=Earl "Joaquin" Murphey
EXTT4=
EXTT5=
EXTT6=Bob Dunn
EXTT7=
EXTT8=Leon McAuliffe and Eldon Shamblin
EXTT9=Leon Rhodes and Buddy Charleston
EXTT10=
EXTT11=
EXTT12=
EXTT13=Reggie Young
EXTT14=Bud Isaacs
EXTT15=
EXTT16=Clarence White and Roger McGuinn
PLAYORDER=
